HIERARCHY
ROOT Hips
{
	OFFSET 0.000000 0.000000 0.000000
	CHANNELS 6 Xposition Yposition Zposition Zrotation Yrotation Xrotation 
	JOINT LHipJoint
	{
		OFFSET 0.000000 0.000000 0.000000
		CHANNELS 3 Zrotation Yrotation Xrotation
		JOINT LeftUpLeg
		{
			OFFSET 1.363060 -1.794630 0.839290
			CHANNELS 3 Zrotation Yrotation Xrotation
			JOINT LeftLeg
			{
				OFFSET 2.448110 -6.726130 0.000000
				CHANNELS 3 Zrotation Yrotation Xrotation
				JOINT LeftFoot
				{
					OFFSET 2.562200 -7.039590 0.000000
					CHANNELS 3 Zrotation Yrotation Xrotation
					JOINT LeftToeBase
					{
						OFFSET 0.157640 -0.433110 2.322550
						CHANNELS 3 Zrotation Yrotation Xrotation
						End Site
						{
							OFFSET 0.000000 0.000000 0.000000
						}
					}
				}
			}
		}
	}
	JOINT RHipJoint
	{
		OFFSET 0.000000 0.000000 0.000000
		CHANNELS 3 Zrotation Yrotation Xrotation
		JOINT RightUpLeg
		{
			OFFSET -1.305520 -1.794630 0.839290
			CHANNELS 3 Zrotation Yrotation Xrotation
			JOINT RightLeg
			{
				OFFSET -2.542530 -6.985550 0.000000
				CHANNELS 3 Zrotation Yrotation Xrotation
				JOINT RightFoot
				{
					OFFSET -2.568260 -7.056230 0.000000
					CHANNELS 3 Zrotation Yrotation Xrotation
					JOINT RightToeBase
					{
						OFFSET -0.164730 -0.452590 2.363150
						CHANNELS 3 Zrotation Yrotation Xrotation
						End Site
						{
							OFFSET 0.000000 0.000000 0.000000
						}
					}
				}
			}
		}
	}
	JOINT LowerBack
	{
		OFFSET 0.000000 0.000000 0.000000
		CHANNELS 3 Zrotation Yrotation Xrotation
		JOINT Spine
		{
			OFFSET 0.028270 2.035590 -0.193380
			CHANNELS 3 Zrotation Yrotation Xrotation
			JOINT Spine1
			{
				OFFSET 0.056720 2.048850 -0.042750
				CHANNELS 3 Zrotation Yrotation Xrotation
				JOINT Neck
				{
					OFFSET 0.000000 0.000000 0.000000
					CHANNELS 3 Zrotation Yrotation Xrotation
					JOINT Neck1
					{
						OFFSET -0.054170 1.746240 0.172020
						CHANNELS 3 Zrotation Yrotation Xrotation
						JOINT Head
						{
							OFFSET 0.104070 1.761360 -0.123970
							CHANNELS 3 Zrotation Yrotation Xrotation
							End Site
							{
								OFFSET 0.000000 0.000000 0.000000
							}
						}
					}
				}
				JOINT LeftShoulder
				{
					OFFSET 0.000000 0.000000 0.000000
					CHANNELS 3 Zrotation Yrotation Xrotation
					JOINT LeftArm
					{
						OFFSET 3.362410 1.200890 -0.311210
						CHANNELS 3 Zrotation Yrotation Xrotation
						JOINT LeftForeArm
						{
							OFFSET 4.983000 -0.000000 -0.000000
							CHANNELS 3 Zrotation Yrotation Xrotation
							JOINT LeftHand
							{
								OFFSET 3.483560 -0.000000 -0.000000
								CHANNELS 3 Zrotation Yrotation Xrotation
								JOINT LeftFingerBase
								{
									OFFSET 0.000000 0.000000 0.000000
									CHANNELS 3 Zrotation Yrotation Xrotation
									JOINT LeftHandIndex1
									{
										OFFSET 0.715260 -0.000000 -0.000000
										CHANNELS 3 Zrotation Yrotation Xrotation
										End Site
										{
											OFFSET 0.000000 0.000000 0.000000
										}
									}
								}
								JOINT LThumb
								{
									OFFSET 0.000000 0.000000 0.000000
									CHANNELS 3 Zrotation Yrotation Xrotation
									End Site
									{
										OFFSET 0.000000 0.000000 0.000000
									}
								}
							}
						}
					}
				}
				JOINT RightShoulder
				{
					OFFSET 0.000000 0.000000 0.000000
					CHANNELS 3 Zrotation Yrotation Xrotation
					JOINT RightArm
					{
						OFFSET -3.136600 1.374050 -0.404650
						CHANNELS 3 Zrotation Yrotation Xrotation
						JOINT RightForeArm
						{
							OFFSET -5.241900 -0.000000 -0.000000
							CHANNELS 3 Zrotation Yrotation Xrotation
							JOINT RightHand
							{
								OFFSET -3.444170 -0.000000 -0.000000
								CHANNELS 3 Zrotation Yrotation Xrotation
								JOINT RightFingerBase
								{
									OFFSET 0.000000 0.000000 0.000000
									CHANNELS 3 Zrotation Yrotation Xrotation
									JOINT RightHandIndex1
									{
										OFFSET -0.622530 -0.000000 -0.000000
										CHANNELS 3 Zrotation Yrotation Xrotation
										End Site
										{
											OFFSET 0.000000 0.000000 0.000000
										}
									}
								}
								JOINT RThumb
								{
									OFFSET 0.000000 0.000000 0.000000
									CHANNELS 3 Zrotation Yrotation Xrotation
									End Site
									{
										OFFSET 0.000000 0.000000 0.000000
									}
								}
							}
						}
					}
				}
			}
		}
	}
}
MOTION
Frames: 7
Frame Time: 0.008333
2.583397 16.753942 -1.886828 119.053890 -86.011270 -128.897350 -11.199109 1.982503 -0.580829 -0.736201 16.989943 -14.303837 0.648851 1.847472 45.375853 3.780826 28.246382 6.314784 6.737701 -0.000000 -50.479800 10.469522 -2.516353 -1.500635 4.042968 -16.066309 -0.430934 1.458157 -1.874354 29.315948 -1.949095 -7.550804 -16.232085 1.209500 0.000000 -58.343500 -3.112969 -3.216319 -0.611897 -0.550649 -3.003996 -2.708415 -2.794049 -3.092482 0.786202 8.886262 -24.475997 -9.357550 -0.016344 0.029731 -0.401235 0.000000 0.000000 0.000000 8.008870 14.833851 -0.103095 -60.955921 30.612279 17.281883 -2.837547 -45.303429 -0.002933 -5.248171 0.019234 -0.002274 -0.073076 -0.041062 -0.000000 0.000000 0.000000 0.000000 0.000000 0.000000 0.000000 6.389668 -20.708559 -0.216575 50.624616 -3.987853 30.263856 1.111889 58.491671 0.005879 1.280373 3.886306 0.043633 0.040393 -0.093264 -0.000000 0.000000 0.000000 0.000000 0.000000 0.000000 0.000000 
2.610563 16.765565 -1.919050 119.127681 -85.905308 -129.132927 -11.225680 1.826967 -0.659796 -0.875052 17.190040 -15.816196 0.742712 1.922730 47.439093 3.871272 28.942857 8.027088 7.721899 0.000000 -48.352900 10.461539 -2.509179 -1.490741 4.106497 -15.883826 -0.093598 1.442588 -1.853353 28.892327 -1.970171 -7.690668 -16.067536 1.195200 0.000000 -58.077300 -3.208280 -3.204145 -0.549817 -0.572287 -2.984904 -2.703445 -2.798869 -3.072976 0.749463 8.918271 -24.326496 -9.388724 -0.012215 0.030770 -0.411147 0.000000 0.000000 0.000000 8.198758 14.642290 -0.079921 -61.411544 30.786752 17.137034 -2.856016 -45.132906 -0.003070 -5.347553 -0.000241 -0.001484 -0.072056 -0.041838 -0.000000 0.000000 0.000000 0.000000 0.000000 0.000000 0.000000 6.349713 -20.526216 -0.190704 50.861017 -3.522766 30.155158 1.107093 58.410593 0.005779 1.096771 3.840815 0.036748 0.042685 -0.095658 -0.000000 0.000000 0.000000 0.000000 0.000000 0.000000 0.000000 
2.639211 16.776744 -1.950676 118.752958 -85.826234 -128.902320 -11.229115 1.661992 -0.746125 -1.070109 17.385270 -17.412311 0.817821 1.998025 49.497810 3.938774 29.425901 9.492453 8.545000 -0.000000 -45.956000 10.469807 -2.499572 -1.482845 4.165609 -15.711427 0.203117 1.425441 -1.834857 28.500003 -1.995896 -7.856982 -15.912729 1.184200 0.000000 -57.813800 -3.308026 -3.187355 -0.474884 -0.596528 -2.960835 -2.696244 -2.808671 -3.048114 0.712191 8.943483 -24.181323 -9.421016 -0.009112 0.031750 -0.421314 0.000000 0.000000 0.000000 8.394674 14.425653 -0.057159 -61.846729 30.921969 17.028300 -2.869537 -45.013091 -0.003205 -5.443900 -0.017636 -0.000795 -0.070803 -0.042533 -0.000000 0.000000 0.000000 0.000000 0.000000 0.000000 0.000000 6.304117 -20.344442 -0.162684 51.129732 -3.092149 30.039031 1.104471 58.326221 0.005679 0.928001 3.795875 0.030564 0.044911 -0.098003 -0.000000 0.000000 0.000000 0.000000 0.000000 0.000000 0.000000 
2.669234 16.787364 -1.981784 117.872577 -85.777654 -128.153305 -11.205353 1.491986 -0.843602 -1.330642 17.585693 -19.088664 0.877064 2.076551 51.542986 3.978155 29.655819 10.625031 9.131900 -0.000001 -43.454100 10.499613 -2.487886 -1.478032 4.210772 -15.560067 0.461386 1.406751 -1.819352 28.142982 -2.024938 -8.043235 -15.768785 1.175900 -0.000000 -57.550800 -3.415400 -3.168149 -0.382615 -0.624012 -2.933741 -2.685751 -2.823836 -3.019807 0.674579 8.965550 -24.041331 -9.452788 -0.007602 0.032598 -0.431321 0.000000 0.000000 0.000000 8.598181 14.186547 -0.035963 -62.258018 31.018404 16.956570 -2.877302 -44.950229 -0.003327 -5.532803 -0.034004 -0.000004 -0.069306 -0.043102 -0.000000 0.000000 0.000000 0.000000 0.000000 0.000000 0.000000 6.259815 -20.165741 -0.133347 51.422245 -2.694315 29.923521 1.103714 58.243044 0.005590 0.780356 3.754303 0.025278 0.046961 -0.100278 -0.000000 0.000000 0.000000 0.000000 0.000000 0.000000 0.000000 
2.700437 16.797460 -2.012382 116.474886 -85.761610 -126.872578 -11.152689 1.320120 -0.952841 -1.664825 17.796385 -20.852346 0.925115 2.160377 53.567908 3.988575 29.627403 11.390594 9.450499 -0.000000 -41.195100 10.553002 -2.474351 -1.474459 4.243916 -15.428267 0.677253 1.386117 -1.806645 27.824661 -2.057804 -8.252149 -15.636476 1.170900 0.000000 -57.281701 -3.530388 -3.147756 -0.275014 -0.654703 -2.904893 -2.672128 -2.844619 -2.989360 0.637295 8.987711 -23.907485 -9.482099 -0.008110 0.033240 -0.440626 0.000000 0.000000 0.000000 8.809212 13.928429 -0.017580 -62.643545 31.078598 16.918990 -2.878766 -44.949525 -0.003429 -5.611164 -0.049005 0.000686 -0.067567 -0.043504 -0.000000 0.000000 0.000000 0.000000 0.000000 0.000000 0.000000 6.222249 -19.992491 -0.103365 51.729900 -2.326329 29.817852 1.104620 58.161942 0.005517 0.656783 3.719921 0.020892 0.048785 -0.102462 -0.000000 0.000000 0.000000 0.000000 0.000000 0.000000 0.000000 
2.732789 16.807035 -2.042553 114.529013 -85.781426 -125.032180 -11.069742 1.149474 -1.075730 -2.076504 18.024818 -22.713602 0.966086 2.252726 55.582555 3.968846 29.334074 11.739807 9.470800 0.000001 -39.185600 10.631430 -2.458607 -1.472267 4.268057 -15.320334 0.854097 1.363251 -1.795989 27.542226 -2.094455 -8.483936 -15.514310 1.168801 0.000000 -57.004800 -3.651059 -3.127756 -0.150452 -0.688249 -2.875998 -2.654843 -2.871333 -2.958451 0.601016 9.013529 -23.779577 -9.507224 -0.010956 0.033620 -0.448783 0.000000 0.000000 0.000000 9.029274 13.655956 -0.002885 -63.002949 31.102233 16.911881 -2.873630 -45.011694 -0.003503 -5.676488 -0.063286 0.001374 -0.065590 -0.043686 -0.000000 0.000000 0.000000 0.000000 0.000000 0.000000 0.000000 6.196489 -19.826054 -0.073653 52.047018 -1.985207 29.726991 1.107003 58.081573 0.005469 0.558051 3.696045 0.017505 0.050349 -0.104541 -0.000000 0.000000 0.000000 0.000000 0.000000 0.000000 0.000000 
2.766075 16.816212 -2.072264 112.017019 -85.839140 -122.611655 -10.956103 0.982093 -1.210785 -2.569228 18.268405 -24.685836 1.003935 2.355437 57.594775 3.921536 28.803356 11.682390 9.214700 0.000000 -37.562400 10.734268 -2.439798 -1.471009 4.291949 -15.237130 0.992676 1.337781 -1.785966 27.291002 -2.135342 -8.741061 -15.399716 1.169500 0.000000 -56.713600 -3.773196 -3.109073 -0.010991 -0.723893 -2.848307 -2.634071 -2.904335 -2.928330 0.566765 9.046026 -23.657354 -9.526493 -0.016333 0.033689 -0.455326 0.000000 0.000000 0.000000 9.259393 13.373598 0.007378 -63.336746 31.090617 16.930087 -2.861902 -45.136145 -0.003541 -5.728184 -0.076606 0.001966 -0.063385 -0.043607 -0.000000 0.000000 0.000000 0.000000 0.000000 0.000000 0.000000 6.186002 -19.667565 -0.044995 52.369572 -1.668523 29.654025 1.110795 57.998977 0.005448 0.482373 3.685984 0.014916 0.051672 -0.106503 -0.000000 0.000000 0.000000 0.000000 0.000000 0.000000 0.000000 
